<svg width="93" height="93" viewBox="0 0 93 93" fill="none" xmlns="http://www.w3.org/2000/svg">
<path d="M79.825 3.1H75.175V1.55C75.175 0.694012 74.481 0 73.625 0C72.769 0 72.075 0.694012 72.075 1.55V3.1H68.975V1.55C68.975 0.694012 68.281 0 67.425 0C66.569 0 65.875 0.694012 65.875 1.55V3.1H62.775V1.55C62.775 0.694012 62.081 0 61.225 0C60.369 0 59.675 0.694012 59.675 1.55V3.1H56.575V1.55C56.575 0.694012 55.881 0 55.025 0C54.169 0 53.475 0.694012 53.475 1.55V3.1H31.775V1.55C31.775 0.694012 31.081 0 30.225 0C29.369 0 28.675 0.694012 28.675 1.55V3.1H25.575V1.55C25.575 0.694012 24.881 0 24.025 0C23.169 0 22.475 0.694012 22.475 1.55V3.1H19.375V1.55C19.375 0.694012 18.681 0 17.825 0C16.969 0 16.275 0.694012 16.275 1.55V3.1H13.175V1.55C13.175 0.694012 12.481 0 11.625 0C10.769 0 10.075 0.694012 10.075 1.55V3.1H5.425C4.56901 3.1 3.875 3.79401 3.875 4.65V77.5C3.875 78.356 4.56901 79.05 5.425 79.05H50.4525C51.3085 79.0521 52.0042 78.3599 52.0064 77.5039C52.0064 77.4665 52.0052 77.4289 52.0025 77.3915L51.9901 77.2117C51.956 76.7932 51.925 76.3747 51.925 75.95C51.93 74.4159 52.111 72.8874 52.4644 71.3946C52.8093 69.9085 53.3246 68.4672 54.0005 67.0995C54.0671 66.9631 54.1275 66.8252 54.1973 66.6903C54.4034 66.2966 54.6266 65.9153 54.8576 65.5356C54.9304 65.4162 55.0018 65.2938 55.0777 65.1759C55.3288 64.7822 55.5933 64.3984 55.8713 64.0243C55.9286 63.9453 55.9875 63.8693 56.0464 63.7887C56.3564 63.3836 56.6783 62.991 57.0121 62.6107L57.0586 62.5596C59.2728 60.0885 62.0558 58.194 65.1666 57.04L65.4394 56.9393C65.858 56.792 66.2826 56.6618 66.712 56.5409C66.9058 56.4867 67.1026 56.437 67.2994 56.3859C67.6621 56.296 68.0264 56.2123 68.3953 56.1426C68.7053 56.0852 69.0277 56.0418 69.3454 55.9984C69.626 55.9581 69.9035 55.9132 70.1871 55.8868C70.8071 55.8279 71.438 55.7907 72.075 55.7907C72.495 55.7907 72.9089 55.8233 73.315 55.8512L73.5087 55.8651C73.5211 55.8651 73.5351 55.8651 73.5475 55.8651C75.5044 56.0122 77.4295 56.4429 79.2624 57.1439C80.06 57.4546 80.9584 57.06 81.2692 56.2623C81.339 56.0833 81.3748 55.893 81.375 55.7008V4.65C81.375 3.79401 80.681 3.1 79.825 3.1ZM52.0087 64.2677C51.9544 64.356 51.8971 64.4397 51.8475 64.5281C51.6243 64.9202 51.4228 65.3248 51.2275 65.7309C51.1174 65.9541 51.0058 66.1757 50.9035 66.4035C50.7346 66.7771 50.5765 67.1584 50.4277 67.5428C50.4122 67.5816 50.3951 67.6172 50.3796 67.656V60.45H54.7987C53.7422 61.6251 52.8075 62.9042 52.0087 64.2677ZM59.675 56.3177C59.1418 56.6556 58.6272 57.0152 58.125 57.3934V57.35H50.375V48.05H59.675V56.3177ZM59.675 44.95H50.375V35.65H59.675V44.95ZM59.675 32.55H50.375V23.25H59.675V32.55ZM72.075 35.65V44.95H62.775V35.65H72.075ZM62.775 32.55V23.25H72.075V32.55H62.775ZM72.0781 52.7C71.3527 52.7 70.6366 52.7419 69.9267 52.8085C69.6167 52.8364 69.3269 52.8845 69.0261 52.9232C68.6464 52.9744 68.2682 53.0271 67.8947 53.0968C67.5211 53.1666 67.1103 53.2518 66.7229 53.3464C66.4857 53.4037 66.2486 53.4642 66.013 53.5293C65.548 53.6564 65.0829 53.7943 64.6179 53.9493C64.559 53.971 64.5017 53.9943 64.4428 54.0144C63.8786 54.2113 63.3206 54.4174 62.7781 54.6546V48.05H72.0781V52.7ZM78.275 53.5556C77.2576 53.2704 76.2218 53.0553 75.175 52.9124V21.7C75.175 20.844 74.481 20.15 73.625 20.15H11.625C10.769 20.15 10.075 20.844 10.075 21.7V71.3C10.075 72.156 10.769 72.85 11.625 72.85H49.056C48.9099 73.8771 48.8327 74.9127 48.825 75.95H6.975V17.05H78.275V53.5556ZM37.975 57.35V48.05H47.275V57.35H37.975ZM47.275 60.45V69.75H37.975V60.45H47.275ZM37.975 44.95V35.65H47.275V44.95H37.975ZM37.975 32.55V23.25H47.275V32.55H37.975ZM25.575 57.35V48.05H34.875V57.35H25.575ZM34.875 60.45V69.75H25.575V60.45H34.875ZM25.575 44.95V35.65H34.875V44.95H25.575ZM25.575 32.55V23.25H34.875V32.55H25.575ZM13.175 57.35V48.05H22.475V57.35H13.175ZM22.475 60.45V69.75H13.175V60.45H22.475ZM13.175 44.95V35.65H22.475V44.95H13.175ZM13.175 32.55V23.25H22.475V32.55H13.175ZM78.275 13.95H6.975V6.2H10.075V7.75C10.075 8.60599 10.769 9.3 11.625 9.3C12.481 9.3 13.175 8.60599 13.175 7.75V6.2H16.275V7.75C16.275 8.60599 16.969 9.3 17.825 9.3C18.681 9.3 19.375 8.60599 19.375 7.75V6.2H22.475V7.75C22.475 8.60599 23.169 9.3 24.025 9.3C24.881 9.3 25.575 8.60599 25.575 7.75V6.2H28.675V7.75C28.675 8.60599 29.369 9.3 30.225 9.3C31.081 9.3 31.775 8.60599 31.775 7.75V6.2H53.475V7.75C53.475 8.60599 54.169 9.3 55.025 9.3C55.881 9.3 56.575 8.60599 56.575 7.75V6.2H59.675V7.75C59.675 8.60599 60.369 9.3 61.225 9.3C62.081 9.3 62.775 8.60599 62.775 7.75V6.2H65.875V7.75C65.875 8.60599 66.569 9.3 67.425 9.3C68.281 9.3 68.975 8.60599 68.975 7.75V6.2H72.075V7.75C72.075 8.60599 72.769 9.3 73.625 9.3C74.481 9.3 75.175 8.60599 75.175 7.75V6.2H78.275V13.95Z" fill="#7681A4"/>
<path d="M72.0749 58.8999C62.6585 58.8999 55.0249 66.5335 55.0249 75.9499C55.0249 85.3663 62.6585 92.9999 72.0749 92.9999C81.4913 92.9999 89.1249 85.3663 89.1249 75.9499C89.1139 66.5381 81.4867 58.9109 72.0749 58.8999ZM72.0749 89.8999C64.3706 89.8999 58.1249 83.6542 58.1249 75.9499C58.1249 68.2454 64.3706 61.9999 72.0749 61.9999C79.7794 61.9999 86.0249 68.2454 86.0249 75.9499C86.0164 83.6507 79.7757 89.8914 72.0749 89.8999Z" fill="#7681A4"/>
<path d="M80.883 67.1042C80.2823 66.5239 79.3299 66.5239 78.7292 67.1042L72.0751 73.7583L68.521 70.2042C67.9052 69.6093 66.9241 69.6264 66.3293 70.2421C65.749 70.8428 65.749 71.7952 66.3293 72.3959L70.9793 77.0459C71.5845 77.6509 72.5657 77.6509 73.171 77.0459L80.9209 69.2959C81.5158 68.6801 81.4987 67.699 80.883 67.1042Z" fill="#7681A4"/>
</svg>
