<svg width="33" height="33" viewBox="0 0 33 33" fill="none" xmlns="http://www.w3.org/2000/svg">
<path d="M32.321 26.9568H6.17901V0.679012C6.17901 0.271605 5.90741 0 5.5 0C5.09259 0 4.82099 0.271605 4.82099 0.679012V26.9568H0.679012C0.271605 26.9568 0 27.2284 0 27.6358C0 28.0432 0.271605 28.3148 0.679012 28.3148H4.82099V32.321C4.82099 32.7284 5.09259 33 5.5 33C5.90741 33 6.17901 32.7284 6.17901 32.321V28.3148H32.321C32.7284 28.3148 33 28.0432 33 27.6358C33 27.2284 32.6605 26.9568 32.321 26.9568Z" fill="white"/>
<path d="M27.8392 15.2098L31.5059 11.3395C31.7775 11.0679 31.7775 10.6605 31.5059 10.3889C31.2343 10.1172 30.8269 10.1172 30.5553 10.3889L26.9565 14.1913L18.6047 5.22836C18.4689 5.09256 18.2652 5.02466 18.1294 5.02466C17.9257 5.02466 17.7899 5.09256 17.6541 5.22836L8.5553 14.9382C8.2837 15.2098 8.28369 15.6172 8.6232 15.8888C8.89481 16.1605 9.30221 16.1605 9.57382 15.8209L18.0615 6.65429L25.938 15.2098L22.4072 18.9444L18.1973 13.6481C18.0615 13.5123 17.9257 13.3765 17.722 13.3765C17.5183 13.3765 17.3146 13.4444 17.1788 13.5802L8.6232 22C8.3516 22.2716 8.3516 22.679 8.6232 22.9506C8.759 23.0864 8.96271 23.1543 9.09851 23.1543C9.30221 23.1543 9.43802 23.0864 9.57382 22.9506L17.6541 15.0061L21.8639 20.3703C21.9997 20.5061 22.2034 20.6419 22.3393 20.6419C22.543 20.6419 22.7467 20.574 22.8825 20.4382L26.8886 16.2284L30.4874 20.1666C30.6232 20.3024 30.8269 20.3703 30.9627 20.3703C31.0985 20.3703 31.3022 20.3024 31.438 20.1666C31.7096 19.895 31.7096 19.4876 31.5059 19.216L27.8392 15.2098Z" fill="white"/>
</svg>
