<svg width="35" height="34" viewBox="0 0 35 34" fill="none" xmlns="http://www.w3.org/2000/svg">
<path d="M5 25.05V0.625C5 0.279375 4.72 0 4.375 0C4.03 0 3.75 0.279375 3.75 0.625V25.05C1.63312 25.355 0 27.1756 0 29.375C0 31.7869 1.9625 33.75 4.375 33.75C6.7875 33.75 8.75 31.7869 8.75 29.375C8.75 27.1756 7.11688 25.355 5 25.05Z" fill="#7681A4"/>
<path d="M18.125 12.3094V0.625C18.125 0.279375 17.845 0 17.5 0C17.155 0 16.875 0.279375 16.875 0.625V12.27C14.6237 12.5175 12.8662 14.43 12.8662 16.7456C12.8662 19.0612 14.6237 20.9737 16.875 21.2212V33.125C16.875 33.4706 17.155 33.75 17.5 33.75C17.845 33.75 18.125 33.4706 18.125 33.125V21.1819C20.25 20.8212 21.875 18.9719 21.875 16.7456C21.875 14.5194 20.25 12.67 18.125 12.3094Z" fill="#7681A4"/>
<path d="M35 4.375C35 1.96312 33.0375 0 30.625 0C28.2125 0 26.25 1.96312 26.25 4.375C26.25 6.57438 27.8831 8.395 30 8.7V33.125C30 33.4706 30.28 33.75 30.625 33.75C30.97 33.75 31.25 33.4706 31.25 33.125V8.7C33.3669 8.395 35 6.57438 35 4.375Z" fill="#7681A4"/>
</svg>
