<svg width="40" height="40" viewBox="0 0 40 40" fill="none" xmlns="http://www.w3.org/2000/svg">
<g clip-path="url(#clip0)">
<path d="M34.5884 5.92048L34.2878 1.23112C34.2688 0.982907 34.1693 0.747688 34.0044 0.561208C33.8122 0.40962 33.5787 0.319762 33.3345 0.303551L28.6451 0.00295073C28.1724 -0.0360199 27.7576 0.315575 27.7185 0.788269C27.7182 0.792777 27.7178 0.797179 27.7176 0.801688C27.6881 1.2732 28.045 1.67987 28.5163 1.71208L31.4192 1.90103L27.7777 5.54258C23.8092 2.23598 17.9117 2.77244 14.605 6.7409C13.5563 7.99945 12.8566 9.51125 12.5759 11.1252C7.54998 12.3382 4.45905 17.3959 5.67219 22.4218C6.61221 26.3163 9.92622 29.181 13.9157 29.5476V33.5242H10.987C10.5127 33.5242 10.1282 33.9087 10.1282 34.383C10.1282 34.8573 10.5127 35.2419 10.987 35.2419H13.9243V39.1411C13.9243 39.6154 14.3089 39.9999 14.7832 39.9999C15.2575 39.9999 15.642 39.6154 15.642 39.1411V35.2419H18.5793C19.0536 35.2419 19.4382 34.8573 19.4382 34.383C19.4382 33.9087 19.0536 33.5242 18.5793 33.5242H15.642V29.5476C19.8515 29.1495 23.274 25.9837 23.9987 21.8179C29.0197 20.6045 32.1062 15.5505 30.8928 10.5295C30.5586 9.14656 29.9131 7.85806 29.0058 6.76216L32.6646 3.10343L32.8707 6.03213C32.898 6.48625 33.2747 6.84031 33.7296 6.83946C34.2039 6.84064 34.5894 6.45705 34.5906 5.98275C34.5906 5.96192 34.5899 5.94109 34.5884 5.92048ZM14.7832 27.8729C10.5568 27.866 7.13633 24.4343 7.1432 20.208C7.14857 16.8911 9.29024 13.9553 12.4471 12.9373C12.5362 18.0376 16.699 22.124 21.8 22.1185H22.1865C21.3179 25.4992 18.2737 27.8653 14.7832 27.8729ZM22.427 20.3665C22.2209 20.3665 22.0147 20.3665 21.8086 20.3665C17.5917 20.3722 14.1688 16.9584 14.1631 12.7415C14.163 12.6837 14.1636 12.6258 14.1648 12.568C14.3709 12.568 14.577 12.568 14.7832 12.568C19.0076 12.5728 22.4309 15.9961 22.4356 20.2205C22.4356 20.272 22.427 20.3148 22.427 20.3665ZM29.2159 14.5711C28.8777 15.9062 28.1849 17.1251 27.2108 18.099V18.1591C26.3492 19.0066 25.2982 19.6365 24.1447 19.997C24.0419 14.8993 19.8819 10.8195 14.7832 10.8159H14.3967C15.4336 6.72362 19.5917 4.24689 23.6839 5.28385C27.7762 6.32092 30.253 10.479 29.2159 14.5711Z" fill="white"/>
</g>
<defs>
<clipPath id="clip0">
<rect width="40" height="40" fill="white"/>
</clipPath>
</defs>
</svg>
