<svg width="31" height="31" viewBox="0 0 31 31" fill="none" xmlns="http://www.w3.org/2000/svg">
<path d="M30.7221 0.656187C30.5499 0.551705 30.3352 0.547113 30.1578 0.640687L20.6667 5.66556L11.1761 0.640687C11.1686 0.636668 11.16 0.63552 11.1525 0.632075C11.125 0.618872 11.0969 0.609112 11.0681 0.600501C11.0521 0.595909 11.0366 0.590742 11.0205 0.587298C10.9889 0.580983 10.9568 0.578687 10.9241 0.577538C10.9097 0.576964 10.8954 0.575242 10.8804 0.575816C10.8494 0.577538 10.819 0.583279 10.7886 0.590168C10.7714 0.593612 10.7541 0.595909 10.7375 0.601075C10.7335 0.602224 10.7294 0.602224 10.726 0.603372L0.392667 4.04782C0.15787 4.12589 0 4.34519 0 4.59261V29.2778C0 29.4621 0.0884074 29.6354 0.238815 29.7439C0.337556 29.8146 0.455241 29.8519 0.574074 29.8519C0.634926 29.8519 0.696352 29.8421 0.755481 29.822L10.8856 26.4453L20.4479 30.3829C20.456 30.3863 20.4652 30.3852 20.4732 30.3881C20.5364 30.4104 20.6006 30.4259 20.6667 30.4259C20.7183 30.4259 20.7694 30.4173 20.8194 30.4036C20.8354 30.399 20.8504 30.3915 20.8664 30.3858C20.8894 30.3771 20.9135 30.3708 20.9353 30.3593L30.6946 25.1927C30.8823 25.0934 31 24.8976 31 24.6852V1.14817C31 0.946668 30.8944 0.760094 30.7221 0.656187ZM1.14815 5.00652L10.3333 1.94498V17.4404C10.0865 17.4852 9.84307 17.5357 9.6077 17.5977C9.30115 17.6792 9.11859 17.9932 9.20011 18.2998C9.26843 18.557 9.50035 18.7269 9.75467 18.7269C9.80289 18.7269 9.85283 18.7206 9.9022 18.7079C10.04 18.6712 10.1904 18.6528 10.3333 18.623V25.42L1.14815 28.481V5.00652ZM11.4815 18.4622C11.6658 18.4479 11.8443 18.4244 12.0332 18.4203C12.3501 18.4134 12.6015 18.1511 12.5952 17.8342C12.5883 17.5213 12.3328 17.2722 12.0211 17.2722C12.0171 17.2722 12.0125 17.2722 12.0085 17.2722C11.8305 17.2762 11.6554 17.286 11.4815 17.298V2.1017L20.0926 6.66043V18.8274C19.6827 18.8096 19.2659 18.7613 18.8291 18.6769C18.5168 18.6155 18.2165 18.8199 18.1562 19.131C18.096 19.4422 18.2998 19.7436 18.6109 19.8039C19.1195 19.9026 19.6132 19.9508 20.0932 19.9698V28.9948L11.4815 25.4487V18.4622ZM29.8519 24.339L21.2407 28.8978V19.9078C21.4543 19.8107 21.5967 19.5926 21.5777 19.3452C21.5611 19.1305 21.4233 18.9582 21.2407 18.8739V6.66043L29.8519 2.1017V24.339Z" fill="white"/>
<path d="M6.31471 5.16675C4.73198 5.16675 3.44434 6.4544 3.44434 8.03712C3.44434 9.42351 4.43232 10.5826 5.74063 10.8495V12.0556C5.74063 12.3731 5.99782 12.6297 6.31471 12.6297C6.6316 12.6297 6.88878 12.3731 6.88878 12.0556V10.8495C8.1971 10.5826 9.18508 9.42351 9.18508 8.03712C9.18508 6.4544 7.89743 5.16675 6.31471 5.16675ZM6.31471 9.75934C5.36519 9.75934 4.59248 8.98664 4.59248 8.03712C4.59248 7.0876 5.36519 6.3149 6.31471 6.3149C7.26423 6.3149 8.03693 7.0876 8.03693 8.03712C8.03693 8.98664 7.26423 9.75934 6.31471 9.75934Z" fill="white"/>
<path d="M25.8733 15.8863C25.9422 15.9132 26.0128 15.9253 26.0823 15.9253C26.3119 15.9253 26.5283 15.7869 26.6173 15.5602C26.8871 14.8719 27.1036 14.0946 27.262 13.2501C27.3206 12.939 27.115 12.6393 26.8033 12.5802C26.4899 12.5285 26.1919 12.7277 26.1334 13.0394C25.9887 13.8133 25.7918 14.5205 25.5484 15.1423C25.433 15.4368 25.5783 15.7703 25.8733 15.8863Z" fill="white"/>
<path d="M7.35115 18.5667C6.65824 19.0013 6.03365 19.5455 5.49402 20.1856C5.28965 20.4279 5.32065 20.7901 5.56291 20.9945C5.67083 21.0852 5.8023 21.1294 5.93261 21.1294C6.09622 21.1294 6.25811 21.0599 6.37178 20.9256C6.83448 20.3768 7.36894 19.91 7.96081 19.5398C8.22948 19.371 8.31043 19.0168 8.14222 18.7481C7.97402 18.4794 7.61924 18.3979 7.35115 18.5667Z" fill="white"/>
<path d="M4.95266 21.9733C4.66447 21.8413 4.32347 21.9659 4.19086 22.254C3.60186 23.5319 3.45605 24.5635 3.44973 24.6072C3.40668 24.9212 3.62597 25.2099 3.93999 25.253C3.9664 25.257 3.99338 25.2587 4.01921 25.2587C4.30108 25.2587 4.54679 25.0509 4.58755 24.7645C4.58869 24.7553 4.72016 23.8477 5.23338 22.7357C5.36599 22.4469 5.24027 22.1065 4.95266 21.9733Z" fill="white"/>
<path d="M23.2057 19.363C23.2935 19.363 23.3831 19.3429 23.4663 19.3004C24.208 18.921 24.8619 18.3825 25.409 17.7011C25.6076 17.4536 25.568 17.092 25.3206 16.8939C25.0737 16.697 24.7121 16.7355 24.5134 16.9823C24.068 17.5374 23.5398 17.9732 22.9433 18.278C22.6609 18.4227 22.549 18.7683 22.6936 19.0507C22.7958 19.2488 22.9973 19.363 23.2057 19.363Z" fill="white"/>
<path d="M16.7457 18.0442C16.4925 17.938 16.3444 17.8645 16.3346 17.8594C16.2973 17.8404 16.2577 17.8249 16.217 17.8146C15.5952 17.655 14.9827 17.5287 14.3954 17.4391C14.0826 17.3898 13.7892 17.6062 13.741 17.9196C13.6933 18.2331 13.9086 18.5264 14.2221 18.5741C14.7536 18.6556 15.3088 18.7693 15.8737 18.9128C15.9506 18.9495 16.0976 19.019 16.3031 19.1045C16.3754 19.135 16.4506 19.1487 16.5241 19.1487C16.7486 19.1487 16.9621 19.0167 17.054 18.7963C17.1762 18.5023 17.0385 18.1659 16.7457 18.0442Z" fill="white"/>
<path d="M26.9373 11.4418C26.9499 11.4424 26.9619 11.443 26.9746 11.443C27.2748 11.443 27.5274 11.2099 27.5469 10.9051C27.5825 10.3534 27.6003 9.76954 27.6003 9.17136C27.6003 8.97215 27.5986 8.77008 27.5946 8.56399C27.5888 8.24652 27.3133 8.00541 27.0102 8.00024C26.6933 8.00598 26.4407 8.26776 26.4464 8.58465C26.4499 8.78386 26.4522 8.97961 26.4522 9.17136C26.4522 9.74543 26.4349 10.304 26.4011 10.8322C26.381 11.1485 26.6209 11.4212 26.9373 11.4418Z" fill="white"/>
<path d="M4.76112 16.48C4.87307 16.5919 5.02003 16.6482 5.16699 16.6482C5.31395 16.6482 5.46092 16.5919 5.57286 16.48L6.31514 15.7377L7.05742 16.48C7.16936 16.5919 7.31632 16.6482 7.46329 16.6482C7.61025 16.6482 7.75721 16.5919 7.86916 16.48C8.09362 16.2555 8.09362 15.8927 7.86916 15.6683L7.12688 14.926L7.86916 14.1837C8.09362 13.9592 8.09362 13.5964 7.86916 13.372C7.64469 13.1475 7.28188 13.1475 7.05742 13.372L6.31514 14.1142L5.57286 13.372C5.3484 13.1475 4.98558 13.1475 4.76112 13.372C4.53666 13.5964 4.53666 13.9592 4.76112 14.1837L5.5034 14.926L4.76112 15.6683C4.53666 15.8921 4.53666 16.2555 4.76112 16.48Z" fill="white"/>
</svg>
