<svg width="40" height="40" viewBox="0 0 40 40" fill="none" xmlns="http://www.w3.org/2000/svg">
<g clip-path="url(#clip0)">
<path d="M39.595 20.9516L28.19 14.1082L29.6134 13.2032C29.8534 13.0498 29.9984 12.7848 29.9984 12.4998C29.9984 12.2148 29.8534 11.9498 29.6134 11.7965L20.4467 5.96327C20.1734 5.78991 19.8251 5.78991 19.5517 5.96327L10.3851 11.7966C10.145 11.9499 10 12.2149 10 12.4999C10 12.7849 10.145 13.0499 10.385 13.2033L11.8084 14.1099L0.405013 20.9516C0.155013 21.1016 1.31786e-05 21.3716 1.31786e-05 21.6632C-0.00162745 21.9548 0.150013 22.2266 0.400013 22.3782L19.5667 34.0448C19.7 34.1265 19.85 34.1665 20 34.1665C20.15 34.1665 20.3 34.1265 20.4334 34.0448L39.6 22.3783C39.85 22.2249 40 21.9549 40 21.6633C39.9984 21.3716 39.845 21.1016 39.595 20.9516ZM20 7.65491L27.615 12.4999L20 17.3449L12.385 12.4999L20 7.65491ZM13.38 15.1099L19.5517 19.0366C19.6883 19.1232 19.845 19.1666 20 19.1666C20.155 19.1666 20.3117 19.1232 20.4467 19.0366L26.6183 15.1082L27.7167 15.7682L20 20.6799L12.2817 15.7683L13.38 15.1099ZM2.44501 21.6683L10.685 16.7266L18.4484 21.6666L10.6217 26.6466L2.44501 21.6683ZM20 32.3566L12.2084 27.6132L20 22.6549L27.7917 27.6133L20 32.3566ZM29.3784 26.6483L21.5517 21.6666L29.3151 16.7266L37.5551 21.67L29.3784 26.6483Z" fill="white"/>
</g>
<defs>
<clipPath id="clip0">
<rect width="40" height="40" fill="white"/>
</clipPath>
</defs>
</svg>
