<svg width="27" height="27" viewBox="0 0 27 27" fill="none" xmlns="http://www.w3.org/2000/svg">
<path d="M25.9223 8.24564C24.4988 4.92689 22.0798 2.51326 18.7334 1.08601C17.0608 0.372668 15.3085 0.00830078 13.4778 0.00830078C11.6475 0.00830078 9.90807 0.369227 8.23734 1.08601C4.91859 2.50946 2.4889 4.92155 1.06288 8.24564C0.348309 9.91099 0 11.6557 0 13.4861C0 15.3168 0.348309 17.076 1.06288 18.7417C2.4889 22.0658 4.9189 24.4923 8.23734 25.9161C9.90838 26.6329 11.6474 26.9935 13.4778 26.9935C15.3082 26.9935 17.0608 26.6291 18.7331 25.9161C22.0796 24.4888 24.4985 22.0601 25.9223 18.7417C26.6391 17.0706 27 15.3168 27 13.4861C27 11.6557 26.6394 9.91664 25.9223 8.24564ZM23.7672 19.4503C22.7075 21.2677 21.2557 22.7095 19.4272 23.7755C17.6097 24.8353 15.6184 25.3697 13.4781 25.3697C11.8691 25.3697 10.3339 25.0598 8.87224 24.4249C7.41066 23.7904 6.14872 22.9561 5.09307 21.9008C4.03743 20.8451 3.19721 19.5709 2.56893 18.1068C1.9425 16.648 1.63893 15.0954 1.63893 13.4861C1.63893 11.3455 2.16485 9.36429 3.21865 7.55189C4.27619 5.73287 5.72832 4.28952 7.5439 3.22659C9.35916 2.16371 11.3376 1.63209 13.4778 1.63209C15.6184 1.63209 17.6094 2.16684 19.4269 3.22659C21.2554 4.29265 22.704 5.73596 23.7669 7.55185C24.8298 9.36742 25.3611 11.3455 25.3611 13.4861C25.3611 15.6267 24.8333 17.6214 23.7672 19.4503Z" fill="white"/>
<path d="M14.3342 13.3671V5.72023C14.3342 5.26264 13.9355 4.89355 13.4779 4.89355C13.0499 4.89355 12.666 5.26264 12.666 5.72023V13.4852C12.666 13.5 12.6956 13.5592 12.6956 13.6033C12.666 13.8691 12.74 14.0905 12.917 14.2678L17.3311 18.6816C17.6265 18.977 18.1726 18.977 18.4678 18.6816C18.8072 18.3421 18.7849 17.8495 18.4678 17.5302L14.3342 13.3671Z" fill="white"/>
</svg>
