<svg width="34" height="34" viewBox="0 0 34 34" fill="none" xmlns="http://www.w3.org/2000/svg">
<path d="M31.4596 26.3784L25.9216 23.9797C25.7913 23.9145 25.6468 23.7553 25.5227 23.5428L29.2202 23.54C29.2848 23.5462 30.8091 23.6856 32.0314 23.1603C32.4944 22.9608 32.8389 22.567 32.9772 22.0797C33.1166 21.5878 33.0282 21.067 32.7358 20.65C31.6789 19.146 29.2122 15.2162 29.1352 11.2303C29.1335 11.1617 28.9102 4.38325 22.2162 4.32828C21.2307 4.33621 20.3195 4.50338 19.4905 4.81165C19.3097 4.35095 19.0434 3.87041 18.6473 3.41821C17.4839 2.08995 15.5952 1.41675 13.0333 1.41675C10.4714 1.41675 8.58273 2.08995 7.4188 3.41708C6.07693 4.94765 6.2016 6.80348 6.23333 7.11458V10.1287C5.87067 10.5418 5.66667 11.0705 5.66667 11.6162V13.8828C5.66667 14.5725 5.98003 15.2156 6.51497 15.6446C7.03403 17.6999 8.12033 19.2486 8.5 19.7456V21.6207C8.5 22.1692 8.2008 22.6724 7.7197 22.9353L2.66447 25.6927C1.02057 26.5903 0 28.3096 0 30.1819V32.5834H24.9333H26.0667H34V30.4884C34 28.7363 33.0265 27.1621 31.4596 26.3784ZM24.9333 31.4501H1.13333V30.1819C1.13333 28.725 1.9278 27.3859 3.20677 26.6889L8.262 23.9315C9.10803 23.4697 9.63333 22.584 9.63333 21.6212V19.3438L9.5013 19.1863C9.4877 19.1698 8.0988 17.4897 7.56897 15.1828L7.5174 14.9584L7.32417 14.8337C6.99607 14.6218 6.8 14.2665 6.8 13.8834V11.6167C6.8 11.2988 6.93487 11.0025 7.17967 10.7809L7.36667 10.6126V7.08341L7.36157 7.00918C7.35987 6.99388 7.1672 5.42308 8.27107 4.16395C9.21003 3.09295 10.8126 2.55008 13.0333 2.55008C15.2462 2.55008 16.8453 3.08898 17.7854 4.15261C18.2529 4.68075 18.4881 5.27065 18.6054 5.77725C18.6144 5.81691 18.6229 5.85601 18.6309 5.89511C18.6388 5.93535 18.6473 5.97558 18.6535 6.01411C18.6609 6.05831 18.6671 6.10025 18.6734 6.14218C18.6779 6.17221 18.6824 6.20281 18.6858 6.23171C18.6943 6.30198 18.7011 6.36998 18.7057 6.43288C18.7062 6.43798 18.7062 6.44251 18.7062 6.44761C18.7102 6.50881 18.713 6.56661 18.7147 6.61931C18.7147 6.62951 18.7147 6.63801 18.7153 6.64821C18.7164 6.69525 18.7164 6.74002 18.7159 6.77911C18.7159 6.78478 18.7159 6.79045 18.7159 6.79611C18.7136 6.92928 18.7045 7.00862 18.7045 7.01031L18.7 10.6126L18.887 10.7815C19.1318 11.0025 19.2667 11.2988 19.2667 11.6167V13.8834C19.2667 14.3781 18.9425 14.811 18.4609 14.9595L18.1787 15.0462L18.088 15.3267C17.7089 16.5059 17.1689 17.5951 16.4821 18.5641C16.3138 18.8026 16.15 19.014 16.0078 19.1755L15.8667 19.3364V21.6739C15.8667 21.8173 15.8808 21.9578 15.9029 22.0961C15.9075 22.1256 15.9154 22.1539 15.9211 22.1834C15.9432 22.2973 15.9726 22.4089 16.0089 22.5177C16.0174 22.5432 16.0265 22.5676 16.0361 22.5931C16.0803 22.7115 16.1319 22.826 16.1919 22.9359C16.1987 22.9484 16.205 22.9614 16.2118 22.9739C16.2939 23.1189 16.3886 23.2566 16.4974 23.3836L16.6266 23.5428H16.6487C16.843 23.7343 17.0663 23.9009 17.3202 24.0279L22.7335 26.7343C24.0907 27.412 24.9333 28.7754 24.9333 30.2924V31.4501ZM32.8667 31.4501H26.0667V30.2924C26.0667 28.3436 24.9838 26.592 23.2413 25.7205L19.3551 23.7768C19.4508 23.5581 19.4633 23.3076 19.3794 23.0662C19.2406 22.6667 18.8779 22.4089 18.4558 22.4089H17.1995C17.1734 22.363 17.1564 22.3126 17.1354 22.2638C17.1071 22.1987 17.0737 22.1346 17.055 22.0661C17.0204 21.9403 17 21.8088 17 21.6739V19.758C17.1298 19.5994 17.2663 19.4186 17.4074 19.2191C18.1095 18.2275 18.6722 17.1236 19.0814 15.933C19.8809 15.5664 20.4 14.7759 20.4 13.8834V11.6167C20.4 11.071 20.196 10.5423 19.8333 10.1292V7.11515C19.8481 6.97348 19.8798 6.50938 19.7857 5.90305C20.5156 5.61631 21.3333 5.46841 22.2167 5.46105C27.7933 5.50695 27.9967 11.0206 28.0024 11.2529C28.0857 15.55 30.6918 19.7116 31.8087 21.3011C31.9045 21.4371 31.9334 21.6082 31.8875 21.7697C31.8614 21.8626 31.7866 22.0315 31.5843 22.1182C30.6323 22.5279 29.3409 22.4117 29.2746 22.4089H25.3742C25.0098 22.4089 24.6778 22.5942 24.4857 22.9042C24.2941 23.213 24.276 23.5904 24.4369 23.9145C24.6143 24.2721 24.9277 24.7498 25.4428 25.0065L30.9661 27.399C32.1385 27.9911 32.8667 29.1732 32.8667 30.4884V31.4501Z" fill="white"/>
</svg>
