<svg width="97" height="97" viewBox="0 0 97 97" fill="none" xmlns="http://www.w3.org/2000/svg">
<path d="M89.7525 75.2559L73.9528 68.4126C73.581 68.2267 73.1687 67.7724 72.8147 67.1661L83.3634 67.158C83.5477 67.1758 87.8966 67.5735 91.3837 66.0749C92.7045 65.5058 93.6874 64.3822 94.0819 62.9919C94.4796 61.5886 94.2274 60.1029 93.3932 58.913C90.3781 54.6224 83.3408 43.4108 83.1209 32.0392C83.1161 31.8436 82.4791 12.505 63.3814 12.3482C60.57 12.3708 57.9704 12.8477 55.6053 13.7272C55.0895 12.4128 54.3297 11.0419 53.1997 9.75181C49.8806 5.96235 44.4923 4.04175 37.1833 4.04175C29.8744 4.04175 24.486 5.96235 21.1654 9.74858C17.3371 14.1152 17.6928 19.4098 17.7833 20.2973V28.8964C16.7487 30.0749 16.1667 31.5833 16.1667 33.1401V39.6068C16.1667 41.5743 17.0607 43.4092 18.5868 44.633C20.0677 50.4967 23.1668 54.915 24.25 56.3328V61.6824C24.25 63.2473 23.3964 64.6829 22.0239 65.433L7.60157 73.2997C2.91162 75.8605 0 80.7655 0 86.107V92.9584H71.1333H74.3667H97V86.9816C97 81.9829 94.2226 77.4918 89.7525 75.2559ZM71.1333 89.7251H3.23333V86.107C3.23333 81.9505 5.4999 78.1303 9.14872 76.1418L23.571 68.2751C25.9847 66.9576 27.4833 64.4307 27.4833 61.684V55.1866L27.1067 54.7372C27.0679 54.6903 23.1054 49.8969 21.5938 43.3154L21.4467 42.6752L20.8954 42.3196C19.9594 41.7149 19.4 40.7013 19.4 39.6084V33.1417C19.4 32.2348 19.7848 31.3893 20.4832 30.7572L21.0167 30.277V20.2084L21.0021 19.9966C20.9973 19.953 20.4476 15.4716 23.5969 11.8793C26.2757 8.82385 30.8476 7.27508 37.1833 7.27508C43.4964 7.27508 48.0586 8.81253 50.7407 11.847C52.0744 13.3537 52.7454 15.0367 53.08 16.482C53.1059 16.5952 53.1301 16.7067 53.1528 16.8183C53.1754 16.933 53.1996 17.0478 53.2174 17.1578C53.2384 17.2839 53.2562 17.4035 53.274 17.5231C53.2869 17.6088 53.2999 17.6961 53.3096 17.7786C53.3338 17.979 53.3532 18.173 53.3662 18.3525C53.3678 18.367 53.3678 18.38 53.3678 18.3945C53.3791 18.5691 53.3872 18.734 53.392 18.8844C53.392 18.9135 53.392 18.9377 53.3937 18.9668C53.3969 19.101 53.3969 19.2287 53.3953 19.3403C53.3953 19.3564 53.3953 19.3726 53.3953 19.3888C53.3888 19.7687 53.3629 19.995 53.3629 19.9999L53.35 30.277L53.8835 30.7588C54.5819 31.3893 54.9667 32.2348 54.9667 33.1417V39.6084C54.9667 41.0198 54.0419 42.2549 52.6678 42.6785L51.8627 42.9258L51.604 43.7261C50.5225 47.0903 48.9818 50.1976 47.0224 52.9621C46.5422 53.6427 46.075 54.2457 45.6692 54.7065L45.2667 55.1656V61.8344C45.2667 62.2434 45.3071 62.6443 45.3701 63.0388C45.3831 63.1228 45.4057 63.2037 45.4219 63.2877C45.4849 63.6127 45.569 63.9312 45.6724 64.2416C45.6967 64.3143 45.7226 64.3838 45.75 64.4566C45.8761 64.7945 46.0233 65.121 46.1946 65.4347C46.214 65.4702 46.2318 65.5074 46.2512 65.543C46.4856 65.9568 46.7556 66.3497 47.066 66.7118L47.4346 67.1661H47.4977C48.0522 67.7126 48.6892 68.1878 49.4134 68.55L64.8574 76.2712C68.7294 78.2047 71.1333 82.0944 71.1333 86.4222V89.7251ZM93.7667 89.7251H74.3667V86.4222C74.3667 80.8625 71.2772 75.8654 66.306 73.379L55.2189 67.8338C55.4921 67.2098 55.5277 66.4952 55.2884 65.8065C54.8923 64.6668 53.8576 63.9312 52.6532 63.9312H49.0691C48.9947 63.8002 48.9462 63.6563 48.8864 63.5173C48.8056 63.3314 48.7102 63.1487 48.6568 62.9531C48.5582 62.5942 48.5 62.2191 48.5 61.8344V56.3684C48.8702 55.9157 49.2598 55.4 49.6624 54.8309C51.6654 52.0018 53.2708 48.8525 54.438 45.4559C56.7191 44.4099 58.2 42.1547 58.2 39.6084V33.1417C58.2 31.5849 57.618 30.0765 56.5833 28.898V20.2989C56.6254 19.8948 56.7159 18.5707 56.4475 16.8409C58.5298 16.0229 60.8627 15.6009 63.383 15.5799C79.2927 15.7108 79.873 31.441 79.8892 32.1038C80.1269 44.363 87.5619 56.2358 90.7483 60.7706C91.0216 61.1586 91.104 61.6468 90.9731 62.1076C90.8987 62.3727 90.6853 62.8545 90.1081 63.1018C87.3921 64.2707 83.7078 63.9392 83.5186 63.9312H72.3911C71.3516 63.9312 70.4042 64.4598 69.8562 65.3441C69.3097 66.2252 69.258 67.3019 69.7171 68.2266C70.2232 69.2468 71.1172 70.6096 72.5867 71.342L88.3444 78.1675C91.6893 79.857 93.7667 83.2293 93.7667 86.9816V89.7251Z" fill="#7681A4"/>
</svg>
